<svg width="64" height="64" viewBox="0 0 64 64" fill="none" xmlns="http://www.w3.org/2000/svg">
<g clip-path="url(#clip0_104859_16334)">
<path d="M64 0H0V64H64V0Z" fill="#797EF3"/>
<path d="M49.2798 29.2352C48.883 28.2368 48.8446 27.1232 48.8062 26.048C48.7678 24.7424 48.9726 23.36 49.6382 22.3232C50.1502 21.5168 50.9566 20.9152 52.1214 20.736C52.8894 20.6208 54.0414 20.672 54.5662 21.2992C55.1294 21.9648 55.3982 23.1808 55.4366 24.0256C55.4878 25.152 55.1678 26.24 54.8606 27.3024C54.515 28.4672 54.195 30.9248 52.7486 31.2192C51.2254 31.552 49.8174 30.6176 49.2798 29.2352Z" fill="#D9A48E"/>
<path d="M44.0703 64H15.5903C15.6927 63.5648 15.7951 63.1296 15.8975 62.6944C17.9327 53.9648 18.7263 45.5041 18.8415 36.3521C26.0479 39.0145 33.6255 37.8753 41.0623 37.7601C43.8271 37.7217 42.9055 40.8577 42.9311 43.7889C42.9695 47.4497 43.1103 51.0977 43.3279 54.7329C43.5199 57.8305 43.7631 60.928 44.0703 64Z" fill="#D9A48E"/>
<path d="M51.7506 17.5616C52.4802 21.0816 52.2754 24.7936 52.5186 28.5184C52.621 30.144 52.7746 31.7568 52.9922 33.3696C53.6706 38.336 54.9634 43.6608 52.7746 48.1664C51.1618 51.4816 47.8338 53.7344 44.2626 54.6816C41.677 55.3728 39.0146 55.3984 36.365 55.168C32.2562 54.8096 27.9426 53.7728 24.2306 51.7376C21.9522 50.496 19.9042 48.8704 18.2658 46.8224C16.1154 44.1088 15.5266 41.728 15.1426 38.4384C13.8498 27.392 7.23217 14.8096 19.4306 7.19356C28.3778 1.59996 43.2514 2.77756 49.4338 11.9424C50.6626 13.7344 51.3538 15.616 51.7506 17.5616Z" fill="#E5B69E"/>
<path d="M33.9527 32.5756C34.958 32.3751 35.4983 30.8357 35.1595 29.1371C34.8208 27.4386 33.7312 26.2242 32.7259 26.4247C31.7207 26.6252 31.1804 28.1647 31.5192 29.8632C31.8579 31.5617 32.9475 32.7761 33.9527 32.5756Z" fill="#1B1464"/>
<path d="M45.6764 29.3231C46.6816 29.1226 47.2219 27.5831 46.8832 25.8846C46.5444 24.186 45.4548 22.9716 44.4496 23.1721C43.4443 23.3726 42.904 24.9121 43.2428 26.6106C43.5816 28.3092 44.6711 29.5236 45.6764 29.3231Z" fill="#1B1464"/>
<path d="M29.3863 24.1843C29.9418 23.7504 30.8557 23.2934 31.8081 23.1053C32.7655 22.9171 33.6321 23.0221 34.2426 23.5213L35.1335 22.4307C34.0673 21.5603 32.7066 21.4938 31.5367 21.7242C30.3617 21.9558 29.2455 22.5088 28.521 23.0746L29.3863 24.1843ZM34.2426 23.5213C34.5434 23.767 34.9876 23.7222 35.2333 23.4214C35.4791 23.1206 35.4343 22.6765 35.1335 22.4307L34.2426 23.5213ZM28.521 23.0733C28.2138 23.3126 28.1601 23.7542 28.3994 24.0614C28.6388 24.3686 29.0804 24.4224 29.3876 24.183L28.521 23.0733Z" fill="#1B1464"/>
<path d="M41.0624 19.1488C41.4796 19.7158 41.4796 19.7158 41.4796 19.7158C41.4796 19.7158 41.4809 19.7145 41.4822 19.7145C41.4847 19.712 41.4899 19.7081 41.4988 19.703C41.5142 19.6915 41.5398 19.6748 41.5744 19.6518C41.6435 19.607 41.7472 19.5417 41.879 19.4688C42.1452 19.3216 42.5126 19.1475 42.9299 19.0297C43.7644 18.7942 44.6976 18.7993 45.4937 19.5558L46.464 18.5356C45.1724 17.3081 43.6492 17.3644 42.5472 17.6755C41.9968 17.8316 41.527 18.0544 41.198 18.2374C41.0316 18.3296 40.8985 18.4115 40.8051 18.4729C40.7577 18.5036 40.7206 18.5292 40.6937 18.5472C40.6809 18.5561 40.6694 18.5638 40.6617 18.5702C40.6579 18.5728 40.654 18.5753 40.6515 18.5779C40.6502 18.5792 40.6489 18.5792 40.6476 18.5804L40.6464 18.5817C40.6451 18.5817 40.6451 18.5817 41.0624 19.1488ZM45.4924 19.5571C45.774 19.8246 46.2195 19.8144 46.4883 19.5315C46.7558 19.2499 46.7456 18.8044 46.4627 18.5356L45.4924 19.5571ZM40.6451 18.5817C40.3328 18.8121 40.2662 19.2537 40.4966 19.566C40.727 19.8784 41.1686 19.9449 41.4809 19.7145L40.6451 18.5817Z" fill="#1B1464"/>
<path d="M34.5421 43.4868C36.9779 45.2621 40.2023 45.8791 43.1207 45.1226L42.7674 43.7594C40.2586 44.4109 37.4669 43.8759 35.3715 42.3488L34.5421 43.4868ZM43.1207 45.1226C43.497 45.0253 43.7235 44.6413 43.625 44.265C43.5277 43.8887 43.1437 43.6621 42.7674 43.7607L43.1207 45.1226ZM35.3715 42.3501C35.0579 42.121 34.6163 42.1901 34.3885 42.505C34.1607 42.8199 34.2285 43.2602 34.5434 43.488L35.3715 42.3501Z" fill="#1B1464"/>
<path d="M41.6244 27.8387C41.4938 27.2064 41.5335 26.5485 41.586 25.7766L40.1818 25.6819C40.1319 26.4205 40.0692 27.2729 40.2458 28.1254L41.6244 27.8387ZM43.6685 31.4726C42.6701 30.4371 41.9098 29.2339 41.6244 27.84L40.2445 28.1229C40.5991 29.8509 41.5297 31.2845 42.6548 32.4518L43.6685 31.4726ZM44.2458 35.9885C44.8909 35.1923 45.0727 34.3424 44.8845 33.5155C44.7066 32.7334 44.2138 32.0461 43.6711 31.4765L42.6509 32.4467C43.1194 32.9382 43.4151 33.4041 43.5111 33.8278C43.5981 34.2067 43.5431 34.6189 43.1514 35.1014L44.2458 35.9885ZM38.5908 36.7974C39.4036 37.1354 40.4455 37.3465 41.4541 37.2838C42.4602 37.2211 43.529 36.8742 44.2458 35.9898L43.1527 35.1027C42.77 35.575 42.1415 35.8297 41.3658 35.8784C40.5927 35.927 39.7658 35.7606 39.1309 35.497L38.5908 36.7974ZM41.586 25.7753C41.6129 25.3875 41.3197 25.0521 40.9306 25.0253C40.5428 24.9984 40.2074 25.2915 40.1805 25.6806L41.586 25.7753ZM40.9345 27.9808L41.6244 27.84V27.8387L40.9345 27.9808ZM43.1617 31.9616L43.6711 31.4765C43.6698 31.4752 43.6685 31.4739 43.6673 31.4726L43.1617 31.9616ZM39.1309 35.497C38.7725 35.3472 38.3604 35.5174 38.2106 35.8771C38.0609 36.2355 38.2311 36.6477 38.5908 36.7974L39.1309 35.497Z" fill="#1B1464"/>
<path d="M44.1474 44.672C44.1474 44.6976 44.1346 44.7232 44.1346 44.7488C44.0578 45.248 43.8018 45.696 43.4818 46.08C42.3938 47.3856 40.589 47.9872 38.9122 47.7824C37.2354 47.5776 35.6866 46.6304 34.573 45.3504C34.0098 44.6976 33.549 43.9424 33.421 43.0976C33.3698 42.752 33.3954 42.3552 33.6642 42.1376C33.7666 42.048 33.8946 41.9968 34.0226 41.9584C35.5586 41.4592 37.197 42.0992 38.7586 42.496C39.6802 42.7264 40.6274 42.88 41.5746 42.9824C42.829 43.1232 44.3778 42.8544 44.1474 44.672ZM52.5314 28.5184C52.365 28.9536 52.2626 29.4016 52.173 29.8496C51.8018 31.8208 51.981 33.8816 51.3666 35.8144C50.8162 37.5424 49.3698 39.104 48.0002 40.2432C47.693 40.4992 47.3602 40.7552 46.9762 40.896C45.5554 41.4208 44.1602 40.6272 42.765 40.6016C41.8178 40.576 40.8706 40.704 39.9234 40.6528C37.8882 40.5376 35.9298 39.5648 33.8818 39.6544C31.9106 39.744 30.349 41.0496 28.5058 41.6256C27.2898 42.0096 25.933 41.792 24.8066 41.1904C23.8338 40.6784 22.797 39.8592 22.2722 38.8736C21.6706 37.7344 21.5426 36.2624 21.0946 35.0464C20.8258 34.304 19.3666 31.2064 19.021 33.472C18.8034 34.8672 18.7394 36.2368 18.2274 37.5808C17.933 38.3616 17.5362 39.104 17.2802 39.8976C15.5266 45.4016 19.8274 49.344 24.2178 51.7504C27.9298 53.7728 32.2434 54.8224 36.3522 55.1808C38.989 55.4112 41.6642 55.3728 44.2498 54.6944C47.8082 53.7472 51.149 51.4816 52.7618 48.1792C54.9506 43.6736 53.6578 38.3488 52.9794 33.3824C52.7874 31.7568 52.6338 30.144 52.5314 28.5184Z" fill="#1B1464"/>
<path d="M17.2288 27.264C16.2944 26.4064 15.0784 25.92 13.5168 26.0992C11.2384 26.3424 9.26724 28.1984 8.72964 30.4256C7.85924 34.0096 10.624 37.888 13.8368 39.2576C16.6912 40.4736 19.6864 39.1552 20.0448 35.9552C20.2112 34.5344 19.8785 33.1136 19.5585 31.7312C19.1745 30.0544 18.432 28.352 17.2288 27.264Z" fill="#E5B69E"/>
<path d="M16.4991 32.832C16.4991 32.128 16.4991 32.128 16.4991 32.128C16.4991 32.128 16.4991 32.128 16.4978 32.128H16.4965C16.4953 32.128 16.494 32.128 16.4927 32.128C16.4889 32.128 16.485 32.128 16.4799 32.128C16.4697 32.128 16.4556 32.128 16.439 32.1292C16.4044 32.1305 16.3557 32.1318 16.2969 32.1344C16.1778 32.1408 16.0114 32.1536 15.8156 32.1779C15.4278 32.2278 14.8978 32.3276 14.3769 32.5388C13.8597 32.7475 13.2953 33.088 12.9138 33.6524C12.517 34.24 12.3775 34.9824 12.5733 35.8643L13.9481 35.5584C13.8239 35.0003 13.9301 34.6636 14.0799 34.4396C14.2463 34.1939 14.5305 33.9942 14.9042 33.8432C15.2729 33.6934 15.6722 33.614 15.9922 33.5744C16.1497 33.5539 16.2815 33.5449 16.3711 33.5398C16.4159 33.5372 16.4505 33.536 16.4735 33.536C16.485 33.536 16.4927 33.536 16.4965 33.536C16.4991 33.536 16.5004 33.536 16.5004 33.536C16.4991 33.536 16.4991 33.536 16.4991 32.832ZM11.7119 30.7584C11.9077 31.4342 11.9078 31.4342 11.9078 31.4342C11.9078 31.4342 11.9103 31.4342 11.9129 31.4329C11.918 31.4316 11.9257 31.4291 11.9385 31.4265C11.9628 31.4201 11.9999 31.4112 12.0498 31.3996C12.1497 31.3766 12.2956 31.3472 12.4735 31.319C12.8345 31.264 13.3055 31.2243 13.7842 31.2716C14.2655 31.319 14.7084 31.4508 15.0553 31.7017C15.3855 31.9398 15.6761 32.3212 15.813 32.9753L17.1916 32.6886C16.9881 31.7107 16.5119 31.0169 15.8809 30.56C15.2665 30.1158 14.5561 29.9328 13.9238 29.87C13.2902 29.8073 12.6924 29.8611 12.261 29.9264C12.0434 29.9596 11.863 29.9968 11.735 30.0262C11.671 30.0416 11.6197 30.0544 11.5826 30.0633C11.5647 30.0684 11.5494 30.0723 11.5391 30.0748C11.534 30.0761 11.5289 30.0774 11.5263 30.0787C11.525 30.0787 11.5238 30.08 11.5225 30.08H11.5212C11.5212 30.08 11.5212 30.08 11.5199 30.08C11.5161 30.0825 11.5161 30.0825 11.7119 30.7584ZM12.5733 35.8643C12.6578 36.2444 13.0342 36.4825 13.413 36.3993C13.7919 36.3161 14.0313 35.9385 13.9481 35.5596L12.5733 35.8643ZM16.4991 32.832V33.536C16.7116 33.536 16.9113 33.44 17.0457 33.2761C17.1788 33.1123 17.2326 32.896 17.189 32.6886L16.4991 32.832ZM11.5161 30.0825C11.1423 30.1913 10.9273 30.5817 11.0361 30.9542C11.1449 31.328 11.5353 31.543 11.9078 31.4342L11.5161 30.0825Z" fill="#DB9F7F"/>
<path d="M15.6159 14.8352C14.7967 14.8352 14.7967 16.1152 15.6159 16.1152C16.4479 16.1152 16.4479 14.8352 15.6159 14.8352Z" fill="#DB9F7F"/>
<path d="M16.7042 12.5824C15.885 12.5824 15.885 13.8624 16.7042 13.8624C17.5234 13.8624 17.5234 12.5824 16.7042 12.5824Z" fill="#DB9F7F"/>
<path d="M18.0353 14.7456C17.2161 14.7456 17.2161 16.0256 18.0353 16.0256C18.8545 16.0256 18.8545 14.7456 18.0353 14.7456Z" fill="#DB9F7F"/>
</g>
<defs>
<clipPath id="clip0_104859_16334">
<rect width="64" height="64" rx="32" fill="white"/>
</clipPath>
</defs>
</svg>
