<svg width="64" height="64" viewBox="0 0 64 64" fill="none" xmlns="http://www.w3.org/2000/svg">
<g clip-path="url(#clip0_104859_16273)">
<path d="M64 0H0V64H64V0Z" fill="#444DF2"/>
<path d="M51.1746 38.0288C51.789 39.4368 52.7746 40.6528 53.5298 41.984C54.285 43.3152 54.797 44.9152 54.3746 46.3872C54.7458 46.4768 55.0402 46.0544 55.181 45.696C56.0002 43.5072 55.117 39.936 54.3234 37.8112C53.3122 35.0848 51.1362 32.7296 51.021 29.824C50.0482 32.4096 50.0482 35.4816 51.1746 38.0288Z" fill="#797EF3"/>
<path d="M49.5614 9.43359C51.3022 11.5456 52.659 14.1312 52.6078 16.8704C52.5822 17.8304 52.3902 18.7648 52.1982 19.6992C51.8014 21.6192 51.4046 23.5264 51.0078 25.4464C50.9054 25.92 50.8158 26.3936 50.5598 26.8032C49.971 27.7632 48.627 28.0704 47.5774 27.6864C46.5278 27.3024 45.747 26.3424 45.3374 25.3056C44.6974 23.7184 44.7742 21.9008 45.2478 20.2624C45.7214 18.6112 46.5662 17.1008 47.4366 15.6288C48.0894 14.528 48.7806 13.4144 49.8046 12.6464L49.5614 9.43359Z" fill="#797EF3"/>
<path d="M39.5394 64H25.8178C25.805 64 25.805 64 25.7922 64C23.4754 63.8848 21.133 63.9616 18.8034 63.9872C18.3426 63.9872 17.8818 64 17.4082 64C17.4978 63.6928 17.5874 63.3984 17.6642 63.104C19.1234 58.048 19.8274 53.1456 20.0834 47.9616C20.1346 46.9632 20.1602 45.952 20.1858 44.9408C20.5314 45.0432 20.877 45.1328 21.2354 45.2224C21.3122 45.248 21.3762 45.2608 21.453 45.2736C22.0418 45.4144 22.6306 45.5424 23.2322 45.632C28.4546 46.528 33.8434 45.9648 39.1554 45.9008C41.2546 45.8752 40.2946 49.984 39.4626 53.1968C39.4626 53.2096 39.4498 53.2224 39.4498 53.2352C39.0786 54.6304 38.7458 55.8592 38.6946 56.4992C38.5026 59.0208 38.6946 61.632 39.5394 64Z" fill="#E8C5AA"/>
<path d="M44.224 11.2512C43.008 10.3808 41.5488 9.83035 40 9.29275C33.1136 6.89915 24.6144 7.61595 19.2512 12.9664C17.2032 15.0016 15.7312 17.5872 14.9504 20.3776C14.1056 23.3856 14.5408 26.048 14.7328 29.0816C15.0272 33.8944 15.7824 38.9888 18.9056 42.6624C24.192 48.8832 32.512 52.7872 40.6144 53.312C43.136 53.4784 45.9392 53.1456 48.1152 51.7888C49.4208 50.9696 50.496 49.7152 51.008 48.2432C51.3536 47.2448 51.2 46.1056 51.3792 45.056C51.7248 42.9824 52.4416 40.9984 52.6976 38.912C52.9664 36.7104 52.9152 34.4832 52.7232 32.2816C52.608 30.9248 52.5696 29.5296 52.2112 28.2112C51.8528 26.88 51.1744 25.6896 50.7648 24.3584C49.9456 21.6832 49.1776 18.752 47.9104 16.256C47.0144 14.5024 45.8368 12.3904 44.224 11.2512Z" fill="#F4D3B8"/>
<path d="M41.4507 30.0588C42.449 29.826 42.9394 28.2699 42.5461 26.5831C42.1527 24.8963 41.0246 23.7177 40.0263 23.9505C39.028 24.1832 38.5376 25.7393 38.9309 27.4261C39.3243 29.1129 40.4524 30.2915 41.4507 30.0588Z" fill="#1B1464"/>
<path d="M48.9099 26.8006C49.6946 26.6176 50.0824 25.4028 49.7765 24.0883C49.4706 22.7737 48.5848 21.856 47.8002 22.039C47.0155 22.222 46.6277 23.4368 46.9349 24.7513C47.2408 26.0659 48.1253 26.9836 48.9099 26.8006Z" fill="#1B1464"/>
<path d="M50.6725 31.8759C50.8658 32.1076 50.9054 32.5274 50.6277 33.2378C50.3666 33.906 49.9173 34.5818 49.5819 35.0707L50.7442 35.8656C51.0744 35.3831 51.612 34.5869 51.9384 33.7498C52.2494 32.9562 52.4798 31.84 51.7528 30.9709L50.6725 31.8759ZM47.9742 30.7904C48.5029 31.0477 49.189 31.1949 49.628 31.3268C50.1349 31.4778 50.4677 31.6365 50.6802 31.8836L51.7477 30.9658C51.2562 30.3936 50.5842 30.1428 50.0312 29.9776C49.4104 29.792 48.9829 29.7152 48.5899 29.5245L47.9742 30.7904ZM45.0251 26.9056C45.2811 28.6541 46.4651 30.0506 47.9717 30.7891L48.5912 29.5245C47.4354 28.9575 46.597 27.922 46.4178 26.7008L45.0251 26.9056ZM49.5819 35.0707C49.3618 35.392 49.445 35.8298 49.765 36.0487C50.085 36.2676 50.524 36.1856 50.7429 35.8656L49.5819 35.0707ZM51.2126 31.424L51.7528 30.9722C51.7502 30.9696 51.749 30.9671 51.7464 30.9658L51.2126 31.424ZM48.2814 30.1568L47.9717 30.7891C47.973 30.7891 47.973 30.7904 47.9742 30.7904L48.2814 30.1568ZM46.4178 26.7008C46.3614 26.3156 46.0043 26.0506 45.619 26.1069C45.2338 26.1632 44.9688 26.5203 45.0251 26.9056L46.4178 26.7008Z" fill="#1B1464"/>
<path d="M42.2914 41.5347C44.3727 41.3837 46.8943 41.184 48.7234 39.6429L47.8159 38.5664C46.3938 39.7645 44.3586 39.9744 42.1903 40.1306L42.2914 41.5347ZM38.9135 41.4426C40.0681 41.6986 41.247 41.6103 42.2914 41.5347L42.1903 40.1306C41.11 40.2087 40.1385 40.2727 39.2194 40.0691L38.9135 41.4426ZM48.1666 42.2682C45.2841 43.4586 41.6591 42.6125 39.5919 40.288L38.5398 41.2237C41.0038 43.9936 45.2636 44.9907 48.7042 43.5699L48.1666 42.2682ZM48.7222 39.6429C49.0191 39.392 49.0575 38.9479 48.8066 38.6509C48.5558 38.3539 48.1116 38.3155 47.8146 38.5664L48.7222 39.6429ZM39.0658 40.7552L39.2182 40.0679C38.9199 40.0013 38.6127 40.1357 38.4578 40.3981C38.303 40.6618 38.3362 40.9946 38.5385 41.2224L39.0658 40.7552ZM48.7042 43.5687C49.0639 43.4202 49.2342 43.008 49.0857 42.6496C48.9372 42.2899 48.525 42.1197 48.1666 42.2682L48.7042 43.5687Z" fill="#1B1464"/>
<path d="M36.7629 21.376C35.5942 21.911 34.4589 22.839 33.9226 24.1267L35.2218 24.6681C35.5814 23.8041 36.3917 23.0937 37.3478 22.6573L36.7629 21.376ZM41.3414 20.8141C39.7146 20.4889 38.2976 20.6784 36.7654 21.376L37.3478 22.6573C38.6304 22.0736 39.7478 21.9315 41.0662 22.1952L41.3414 20.8141ZM33.9226 24.1254C33.7728 24.4838 33.943 24.896 34.3014 25.0457C34.6598 25.1955 35.072 25.0253 35.2218 24.6669L33.9226 24.1254ZM37.056 22.016L36.7642 21.3747C36.7642 21.3747 36.7629 21.3747 36.7629 21.376L37.056 22.016ZM41.065 22.1939C41.4464 22.2707 41.8176 22.0224 41.8931 21.6422C41.9699 21.2608 41.7216 20.8896 41.3414 20.8141L41.065 22.1939Z" fill="#1B1464"/>
<path d="M46.1952 19.5328C46.4 20.206 46.4 20.206 46.3987 20.206C46.3987 20.206 46.3987 20.206 46.4 20.206C46.4013 20.206 46.4051 20.2048 46.409 20.2035C46.4179 20.2009 46.4346 20.1958 46.4563 20.1907C46.4998 20.1792 46.5651 20.1638 46.6496 20.1459C46.8186 20.11 47.0566 20.0704 47.3254 20.0524C47.8861 20.014 48.4736 20.0793 48.8998 20.3545L49.664 19.1718C48.8602 18.6534 47.9053 18.6022 47.232 18.6483C46.8838 18.6713 46.5792 18.7225 46.3629 18.7686C46.2541 18.7916 46.1658 18.8134 46.1018 18.8288C46.0698 18.8364 46.0454 18.8441 46.0262 18.8492C46.0173 18.8518 46.0096 18.8544 46.0045 18.8556C46.0019 18.8569 45.9994 18.8569 45.9968 18.8582C45.9955 18.8582 45.9955 18.8582 45.9942 18.8595H45.993C45.9904 18.8595 45.9904 18.8595 46.1952 19.5328ZM48.8986 20.3545C49.225 20.5657 49.6614 20.4723 49.8714 20.1446C50.0813 19.8169 49.9891 19.3817 49.6614 19.1718L48.8986 20.3545ZM45.9904 18.8595C45.6179 18.9721 45.408 19.3651 45.5206 19.7376C45.6333 20.11 46.0262 20.32 46.3987 20.2073L45.9904 18.8595Z" fill="#1B1464"/>
<path d="M39.3985 14.6176C39.6289 14.912 39.8721 15.2064 40.1153 15.488C41.8305 17.472 44.1345 17.3952 46.5921 17.6512C48.4225 17.8304 50.3809 18.3168 51.5073 19.776C52.4289 20.9792 52.5825 22.6304 52.3521 24.128C52.2625 24.7552 52.1089 25.3696 52.0449 25.9968C51.8401 28.0064 52.5825 30.0544 53.8881 31.5776C55.1937 33.1136 57.0497 34.1376 58.9953 34.6112C57.9713 33.6896 56.9345 32.7552 56.1665 31.5904C55.2961 30.2592 54.8225 28.6848 54.8353 27.0976C54.8481 25.472 55.3473 23.8848 55.6801 22.2976C56.4225 18.752 56.1921 15.04 55.1937 11.5712C54.3617 8.70403 52.9281 4.76163 50.2529 3.11043C48.0513 1.74083 45.6577 1.04963 43.0337 1.25443C40.8065 1.43363 38.5665 2.47043 37.2993 4.32643C35.1233 7.51363 37.2993 11.9168 39.3985 14.6176Z" fill="#797EF3"/>
<path d="M38.7202 8.88316C38.5282 9.02396 38.3362 9.15196 38.1442 9.27996C37.8882 9.44636 37.6322 9.61276 37.3762 9.76636C37.2098 9.86876 37.0434 9.97116 36.877 10.0736C34.3042 11.712 31.7186 13.3504 29.3762 15.3088C27.8914 16.5504 26.509 17.8944 25.1522 19.264C24.5378 19.8784 23.7442 20.4416 23.1938 21.0944C22.6562 21.7344 22.669 22.4128 22.5794 23.2448C22.5666 23.3728 22.5538 23.5136 22.5282 23.6416C22.0418 27.8272 21.5554 32.0128 21.0562 36.1856C20.6978 39.2064 21.005 42.1248 21.2098 45.0432C21.2098 45.0944 21.2226 45.1456 21.2226 45.1968C21.325 46.8096 21.4018 48.4224 21.3122 50.0736C21.2866 50.5472 21.2482 51.0208 21.1842 51.4944C20.9794 53.2608 20.7618 55.0144 20.557 56.7808C20.2882 59.0592 20.0066 61.3888 19.0466 63.4752C18.9698 63.6416 18.8802 63.8208 18.7906 63.9872H6.65619C6.36179 63.7312 6.09299 63.4752 5.90099 63.168C5.14579 61.9392 5.51699 59.712 5.97779 58.4576C6.47699 57.1392 7.34739 55.9872 7.94899 54.72C8.55059 53.44 8.84499 51.8784 8.16659 50.6496C7.87219 50.112 7.42419 49.6896 7.05299 49.2032C5.40179 46.9504 5.96499 43.8144 6.77139 41.1392C7.57779 38.464 8.56339 35.5712 7.56499 32.96C7.09139 31.7312 6.20819 30.6944 5.65779 29.4912C4.16019 26.1888 5.44019 22.2464 7.46259 19.2384C8.29459 17.9968 9.25459 16.8192 9.79219 15.424C10.381 13.9008 10.4194 12.224 10.6626 10.6112C10.9058 8.99836 11.4434 7.30876 12.7362 6.29756C13.7986 5.46556 15.1554 5.26076 16.397 4.81276C17.6642 4.35196 18.701 3.57116 19.8402 2.87996C22.4898 1.27996 25.5106 0.396763 28.6082 0.345563C30.8738 0.319963 33.1394 0.703963 35.2898 1.39516C36.6466 1.83036 37.4786 2.38076 38.2722 3.18716C38.6818 3.60956 39.0914 4.10876 39.5522 4.68476C39.8978 5.11996 40.2434 5.56796 40.3458 6.10556C40.5506 7.24476 39.6802 8.17916 38.7202 8.88316Z" fill="#797EF3"/>
<path d="M17.3056 25.8432C16.4864 24.8704 15.3472 24.2304 13.7856 24.192C11.4944 24.1408 9.29281 25.7152 8.47361 27.8528C7.14241 31.296 9.36961 35.5072 12.3776 37.2736C15.0528 38.848 18.1888 37.9264 18.9696 34.816C19.3152 33.4336 19.1744 31.9744 19.0464 30.5664C18.8672 28.864 18.3552 27.0976 17.3056 25.8432Z" fill="#F4D3B8"/>
<path d="M15.8722 31.2832C15.9656 30.5856 15.9644 30.5856 15.9644 30.5856C15.9644 30.5856 15.9644 30.5856 15.9631 30.5856H15.9618C15.9605 30.5856 15.9592 30.5856 15.958 30.5856C15.9541 30.5856 15.9503 30.5843 15.9452 30.5843C15.9349 30.583 15.9208 30.5817 15.9042 30.5792C15.8696 30.5753 15.8223 30.5702 15.7621 30.5664C15.6431 30.5574 15.4767 30.5472 15.2796 30.5459C14.8892 30.5433 14.3516 30.574 13.8076 30.7149C13.2687 30.8544 12.6632 31.118 12.2127 31.6275C11.7429 32.1574 11.5087 32.8768 11.5868 33.7766L12.9896 33.655C12.9397 33.0828 13.0895 32.7616 13.2674 32.5606C13.4645 32.3379 13.7717 32.1779 14.1608 32.078C14.5448 31.9782 14.9506 31.9526 15.2732 31.9539C15.4319 31.9552 15.5624 31.9628 15.6533 31.9692C15.6981 31.9731 15.7327 31.9756 15.7544 31.9782C15.766 31.9795 15.7736 31.9808 15.7775 31.9808C15.78 31.9808 15.7813 31.9808 15.7813 31.9808C15.7788 31.9808 15.7788 31.9808 15.8722 31.2832ZM11.3922 28.5952C11.4972 29.2915 11.4972 29.2915 11.4972 29.2915C11.4972 29.2915 11.4997 29.2915 11.5023 29.2902C11.5074 29.2889 11.5164 29.2889 11.5279 29.2864C11.5522 29.2838 11.5906 29.2787 11.6418 29.2736C11.7429 29.2633 11.8914 29.2531 12.0719 29.2492C12.4354 29.2416 12.909 29.2646 13.3762 29.3747C13.846 29.4848 14.2696 29.6742 14.582 29.9686C14.8789 30.2502 15.1196 30.6675 15.172 31.3344L16.5762 31.2269C16.4994 30.231 16.1167 29.4796 15.5496 28.9446C14.998 28.4236 14.317 28.1484 13.7 28.0025C13.0792 27.8566 12.4802 27.831 12.045 27.84C11.8248 27.8438 11.6418 27.8579 11.5112 27.8694C11.446 27.8758 11.3935 27.8822 11.3564 27.886C11.3372 27.8886 11.3231 27.8899 11.3116 27.8924C11.3064 27.8937 11.3013 27.8937 11.2975 27.8937C11.2962 27.8937 11.2936 27.8937 11.2936 27.895H11.2924C11.2924 27.895 11.2924 27.895 11.2911 27.895C11.2872 27.8988 11.2872 27.8988 11.3922 28.5952ZM11.5868 33.7766C11.62 34.1645 11.9618 34.4512 12.3496 34.4166C12.7375 34.3833 13.0242 34.0416 12.9896 33.6537L11.5868 33.7766ZM15.8722 31.2832L15.7788 31.9808C15.9887 32.0089 16.2012 31.9398 16.356 31.7939C16.5109 31.648 16.5903 31.4406 16.5736 31.2281L15.8722 31.2832ZM11.2872 27.8988C10.9032 27.9577 10.6383 28.3161 10.6972 28.7001C10.756 29.0841 11.1144 29.3491 11.4984 29.2902L11.2872 27.8988Z" fill="#EABC97"/>
<path d="M18.9825 17.5232C19.7633 15.3344 21.0689 13.2608 22.4001 11.392C23.6929 9.56159 25.4465 8.06399 27.4561 7.06559C29.3377 6.14399 31.5137 5.65759 33.5361 6.19519C36.8385 7.07839 38.8481 11.2 37.1969 14.3232C36.5441 15.5648 35.3025 16.3712 34.1505 17.152C30.4513 19.6864 26.8289 22.9376 25.8817 27.3152C25.2929 30.016 25.8177 32.8192 25.3825 35.5328C25.0369 37.6192 24.0641 39.3856 23.4497 41.344C22.7969 43.3664 23.1425 45.7472 23.7441 47.744C24.4225 49.984 25.5361 52.0448 26.6241 54.1184C27.4305 55.6544 28.2113 57.6 27.2129 59.0208C27.6993 57.7152 27.1617 56.2176 26.2913 55.1296C25.4209 54.0416 24.2561 53.2352 23.2321 52.288C20.8641 50.0736 19.3153 47.0144 18.8673 43.8144C18.6753 42.4832 18.5217 41.0496 18.4321 39.6928C18.3297 38.0672 19.0081 36.4544 19.1873 34.8416C19.5201 31.7952 18.0993 29.4528 17.8305 26.624C17.5489 23.6544 17.9713 20.3648 18.9825 17.5232Z" fill="#797EF3"/>
<path d="M38.8481 53.312C38.8481 52.608 38.8481 52.608 38.8481 52.608C38.8468 52.608 38.8455 52.608 38.8417 52.608C38.8353 52.608 38.8251 52.608 38.8097 52.608C38.7803 52.6067 38.7342 52.6055 38.6714 52.6029C38.5473 52.5978 38.3604 52.5863 38.1159 52.5619C37.6282 52.5159 36.9153 52.4211 36.0346 52.2317C34.2721 51.8528 31.8401 51.0912 29.1879 49.5655L28.4865 50.7866C31.2858 52.3968 33.8599 53.2045 35.739 53.609C36.6785 53.8112 37.4465 53.9136 37.9828 53.9648C38.2516 53.9904 38.4628 54.0032 38.6087 54.0096C38.6817 54.0135 38.7393 54.0147 38.779 54.016C38.7994 54.016 38.8148 54.0173 38.8263 54.0173C38.8314 54.0173 38.8366 54.0173 38.8404 54.0173C38.8417 54.0173 38.8442 54.0173 38.8442 54.0173H38.8455C38.8481 54.016 38.8481 54.016 38.8481 53.312ZM29.1892 49.5655C28.8526 49.3722 28.4212 49.4874 28.2279 49.8253C28.0346 50.1632 28.1498 50.5933 28.4878 50.7866L29.1892 49.5655ZM38.8481 54.016C39.2372 54.016 39.5521 53.7011 39.5521 53.312C39.5521 52.9229 39.2372 52.608 38.8481 52.608V54.016Z" fill="#1B1464"/>
</g>
<defs>
<clipPath id="clip0_104859_16273">
<rect width="64" height="64" rx="32" fill="white"/>
</clipPath>
</defs>
</svg>
