<svg width="64" height="64" viewBox="0 0 64 64" fill="none" xmlns="http://www.w3.org/2000/svg">
<g clip-path="url(#clip0_104859_16310)">
<path d="M64 0H0V64H64V0Z" fill="#ADB0D9"/>
<path d="M39.2843 64H10.8018C10.9029 63.6992 11.0066 63.3997 11.1077 63.1002C13.1403 57.0778 13.9326 51.2474 14.0491 44.9344C21.2606 46.77 28.8344 45.9828 36.275 45.906C39.0437 45.8778 38.1131 48.0449 38.149 50.0609C38.1925 52.5812 38.323 55.1002 38.5406 57.6116C38.725 59.7479 38.9733 61.8791 39.2843 64Z" fill="#ADB0D9"/>
<path d="M39.2843 64H10.8018C10.9029 63.6992 11.0066 63.3997 11.1077 63.1002C13.1403 57.0778 13.9326 51.2474 14.0491 44.9344C21.2606 46.77 28.8344 45.9828 36.275 45.906C39.0437 45.8778 38.1131 48.0449 38.149 50.0609C38.1925 52.5812 38.323 55.1002 38.5406 57.6116C38.725 59.7479 38.9733 61.8791 39.2843 64Z" fill="#E8AE8E"/>
<path d="M19.0847 50.089C19.1308 50.144 19.1781 50.1991 19.2242 50.2528C19.8181 50.9517 20.4159 51.6544 21.1148 52.2496C24.7589 55.3498 30.4306 55.7056 34.9196 56.5811C37.646 57.1123 40.3749 57.2032 43.0617 56.3802C46.1593 55.4304 48.9381 53.3363 50.4946 50.4947C52.4325 46.9543 52.3545 42.697 52.2265 38.6624C52.1535 36.3725 52.0805 34.0839 52.0076 31.7939C51.9615 30.3578 51.9167 28.9203 51.9897 27.4855C52.1689 23.9488 53.093 20.3213 52.3301 16.7962C51.6965 13.8701 49.2492 10.816 46.5177 9.5757C42.2066 7.61858 37.0418 7.10274 32.3775 7.6301C29.0021 8.01154 25.5679 8.41602 22.4652 9.79458C19.6773 11.0336 16.0639 12.6144 14.5753 15.3805C12.6873 18.8877 11.6133 22.9427 11.1564 26.8826C10.7788 30.1389 10.8466 33.4477 11.3625 36.6861C11.8501 39.7491 12.6655 42.5357 14.6905 44.9178C16.1535 46.6419 17.6191 48.3648 19.0847 50.089Z" fill="#F4C19F"/>
<path d="M39.3385 40.1344C38.957 40.1344 38.6434 39.8298 38.6345 39.447C38.6255 39.0579 38.9327 38.7354 39.3218 38.7264C41.0767 38.6854 41.7769 38.1773 42.9685 37.0816C41.6066 34.039 40.8054 30.8109 40.5839 27.4778C40.5583 27.0899 40.8514 26.7546 41.2393 26.729C41.6246 26.7046 41.9625 26.9965 41.9881 27.3843C42.2057 30.6662 43.0594 33.975 44.4572 36.9523C44.5877 37.2288 44.5237 37.5578 44.2997 37.7664C42.669 39.2845 41.709 40.0794 39.3538 40.1331C39.35 40.1344 39.3449 40.1344 39.3385 40.1344Z" fill="#1B1464"/>
<path d="M33.6878 33.3341C34.7142 33.2668 35.4544 31.8128 35.3411 30.0866C35.2278 28.3604 34.3039 27.0156 33.2774 27.083C32.251 27.1503 31.5108 28.6043 31.6241 30.3305C31.7374 32.0567 32.6613 33.4015 33.6878 33.3341Z" fill="#1B1464"/>
<path d="M47.9089 32.9347C48.9354 32.8673 49.6756 31.4134 49.5623 29.6871C49.449 27.9609 48.525 26.6162 47.4986 26.6836C46.4722 26.7509 45.732 28.2049 45.8453 29.9311C45.9586 31.6573 46.8825 33.0021 47.9089 32.9347Z" fill="#1B1464"/>
<path d="M51.1103 27.1167C50.9106 27.1167 50.7109 27.0322 50.5727 26.8671C48.092 23.9334 45.1762 23.991 45.148 23.9897C44.7551 24.0038 44.4351 23.6966 44.4223 23.3074C44.4095 22.9183 44.7154 22.5945 45.1045 22.5817C45.2504 22.5778 48.7333 22.5087 51.6491 25.957C51.9 26.254 51.8629 26.6982 51.5659 26.949C51.4315 27.0617 51.2703 27.1167 51.1103 27.1167Z" fill="#1B1464"/>
<path d="M26.9875 28.2765C26.9388 28.2765 26.8902 28.2713 26.8403 28.2611C26.4601 28.1817 26.2169 27.8029 26.2963 27.4227C26.327 27.2742 27.1423 23.7504 34.3385 21.7472C34.7135 21.6435 35.1014 21.8624 35.2051 22.2361C35.3087 22.6112 35.0899 22.999 34.7161 23.1027C28.4467 24.8486 27.6799 27.6928 27.6723 27.7209C27.6019 28.0537 27.3126 28.2765 26.9875 28.2765Z" fill="#1B1464"/>
<path d="M39.4842 47.3767C38.9274 47.3767 38.3489 47.2947 37.7677 47.1283C36.4148 46.7405 35.2039 45.9687 34.1364 45.2877C33.8087 45.0791 33.7127 44.6426 33.9213 44.3162C34.13 43.9885 34.5652 43.8925 34.8928 44.1011C35.9271 44.7616 36.9972 45.4451 38.153 45.7754C39.3524 46.1184 40.5018 46.0058 41.3069 45.4669C41.6295 45.2506 42.0672 45.3376 42.2836 45.6602C42.4999 45.9827 42.4128 46.4205 42.0903 46.6368C41.3607 47.1258 40.457 47.3767 39.4842 47.3767Z" fill="#1B1464"/>
<path d="M13.934 38.6739C13.4463 36.5209 13.9852 34.0864 14.0914 31.8924C14.1055 31.6147 14.1298 31.3088 14.3142 31.1129C14.6879 30.7148 15.2985 31.0707 15.8028 31.2371C16.7372 31.5443 17.7855 31.0502 18.4038 30.2425C19.1334 29.2902 19.3446 28.0025 19.3766 26.7724C19.3945 26.0761 19.3382 25.4822 19.0655 24.8588C18.9004 24.4838 18.5382 23.4163 18.1362 23.2768C19.7836 23.8451 21.783 23.7504 23.0079 22.4473C23.374 22.0582 23.6505 21.5833 23.886 21.0931C24.5119 19.7875 25.1276 17.4694 23.9462 16.3251C25.0866 17.4732 26.7161 18.3027 28.311 17.9084C29.9379 17.5052 31.1731 15.4227 30.3897 13.8508C31.2025 15.5673 32.2188 17.4643 33.9699 17.9238C35.918 18.4358 38.0543 16.4544 37.847 14.327C38.7046 16.4825 40.0191 18.6355 42.0774 19.4547C44.1343 20.2739 46.9542 19.0425 47.1654 16.7116C47.1091 17.3235 46.8684 17.9776 46.8991 18.5856C47.0143 20.8512 49.0559 22.5945 50.7673 23.6006C52.4057 24.5632 54.3295 25.6294 56.2956 25.3004C58.1555 24.9907 59.0771 23.424 59.351 21.5462C59.5302 20.3161 59.4508 18.9248 58.6444 18.0236C57.7382 19.4496 56.0537 20.2649 54.4499 20.0563C55.3727 19.5123 56.0601 18.4051 55.9052 17.294C55.7209 15.959 54.4294 15.4355 53.3593 15.6915C54.4243 14.327 55.8246 13.312 55.7452 11.287C55.6569 9.0406 53.847 6.75068 52.0716 5.74204C51.1462 5.21596 50.062 4.91132 49.0406 5.16348C48.0191 5.41564 47.1014 6.327 47.0207 7.44188C46.7532 5.25308 45.3567 3.34716 43.6134 2.15804C41.87 0.968919 39.8066 0.418519 37.7535 0.131799C36.4402 -0.0525212 35.0438 -0.122921 33.8534 0.495319C32.663 1.11356 31.7887 2.63036 32.2419 3.95644C30.7097 1.559 27.9539 0.280279 25.2377 0.0997988C22.5215 -0.0806812 19.8284 0.712919 17.2889 1.7574C16.3225 2.15548 15.3164 2.63548 14.7353 3.5494C13.4796 5.52572 14.8556 8.15612 16.2905 9.98652C15.4355 8.10748 13.1327 7.67484 11.1743 7.6326C9.13274 7.58908 6.68538 7.98204 5.83034 9.95836C4.90234 12.1011 6.50489 14.4588 7.99865 16.1984C5.79065 15.2115 2.92857 17.1212 2.79673 19.6697C2.66489 22.2182 5.31192 24.4531 7.60952 23.7299C7.05272 22.976 5.81242 23.2704 5.31962 24.0742C4.82682 24.8768 4.89593 25.9289 5.10073 26.8633C5.43225 28.3827 6.07609 29.824 6.97209 31.0579C7.66201 32.0076 9.18521 32.7692 9.74841 31.7286C8.12025 31.8873 6.64441 33.1916 6.19641 34.8684C5.74841 36.544 6.35897 38.4832 7.66457 39.5315C8.24441 39.9974 8.99321 40.2982 9.69849 40.1164C10.4038 39.9347 10.9874 39.1488 10.8095 38.3987C10.1017 38.0825 9.25817 38.6841 9.02265 39.4624C8.78713 40.2406 9.01113 41.0944 9.34009 41.8329C9.93273 43.1654 10.8748 44.3174 12.0306 45.1264C12.293 45.3094 12.5926 45.4822 12.9023 45.4348C13.3747 45.3632 13.646 44.832 13.8047 44.3532C14.437 42.4512 14.3654 40.5964 13.934 38.6739Z" fill="#444DF2"/>
<path d="M14.8583 25.8496C14.0403 24.8832 12.8973 24.2394 11.337 24.2035C9.0445 24.1511 6.84931 25.7306 6.01987 27.8695C4.68483 31.3139 6.91715 35.5175 9.92643 37.2941C12.5991 38.8711 15.7364 37.952 16.5159 34.8327C16.8615 33.449 16.7258 31.9975 16.5863 30.5779C16.4199 28.8679 15.9079 27.0912 14.8583 25.8496Z" fill="#F4C19F"/>
<path d="M9.83408 34.4154C9.47312 34.4154 9.16593 34.1389 9.13393 33.7729C9.03025 32.5799 9.49745 31.8631 9.90705 31.4714C10.6533 30.7585 11.7426 30.5729 12.5323 30.5434C12.4133 30.2733 12.2392 30.0481 12.0075 29.8637C10.9554 29.0266 9.06353 29.2852 9.04433 29.2877C8.66033 29.3479 8.30065 29.0817 8.24305 28.6977C8.18417 28.3137 8.44913 27.954 8.83313 27.8964C8.93425 27.881 11.3381 27.5341 12.8831 28.7617C13.6229 29.3505 14.0402 30.1799 14.1208 31.2257C14.1374 31.4369 14.0568 31.6455 13.9032 31.7914C13.7483 31.9373 13.5371 32.0052 13.3259 31.9783C12.8574 31.9181 11.5019 31.8925 10.8773 32.4916C10.6034 32.7553 10.492 33.1341 10.5368 33.6513C10.5701 34.0391 10.2834 34.3796 9.8968 34.4141C9.87504 34.4141 9.85456 34.4154 9.83408 34.4154Z" fill="#EAAA7F"/>
<path d="M37.6881 57.321C37.4897 57.321 34.1848 57.3031 29.9492 56.2061C25.9812 55.1783 20.4337 52.9639 16.5451 48.256C16.298 47.9565 16.3403 47.5123 16.6398 47.2653C16.9393 47.0183 17.3835 47.0605 17.6305 47.36C21.2708 51.7671 26.5112 53.856 30.2654 54.8339C34.3704 55.9027 37.6497 55.913 37.6907 55.913C38.0798 55.913 38.3947 56.2279 38.3947 56.6157C38.3947 57.0048 38.0811 57.3197 37.692 57.321C37.692 57.321 37.6907 57.321 37.6881 57.321Z" fill="#1B1464"/>
</g>
<defs>
<clipPath id="clip0_104859_16310">
<rect width="64" height="64" rx="32" fill="white"/>
</clipPath>
</defs>
</svg>
