<svg width="64" height="64" viewBox="0 0 64 64" fill="none" xmlns="http://www.w3.org/2000/svg">
<g clip-path="url(#clip0_104859_16352)">
<path d="M64 0H0V64H64V0Z" fill="#797EF3"/>
<path d="M39.6684 64H16.165C16.7346 61.9123 17.1967 60.0627 17.2825 59.6749C18.0313 56.2432 18.5049 52.7616 18.6943 49.2685C18.7929 47.4573 18.8159 45.6423 18.7622 43.8298C18.725 42.5741 18.1529 40.5671 18.7225 39.3703C19.813 37.0752 24.8831 39.7696 27.1346 40.0627C31.0015 40.5671 34.9337 40.3303 38.8134 40.0947C38.2233 48.0627 38.5126 56.0832 39.6684 64Z" fill="#797EF3"/>
<path d="M56.0191 35.8259C56.3814 37.4656 57.0777 39.0554 57.0905 40.736C56.7423 40.8205 56.4185 40.5427 56.1791 40.2765C53.6486 37.4566 52.8447 33.5206 52.3135 29.769C51.9859 27.4522 51.1449 23.6045 52.2431 21.4106C52.8025 20.2931 54.8275 18.9939 55.9846 20.0691C57.3529 21.3427 56.2495 25.833 56.0678 27.4675C55.7593 30.24 55.4086 33.0662 56.0191 35.8259Z" fill="#444DF2"/>
<path d="M36.0603 4.28029C34.9813 3.66717 33.8613 3.12573 32.7003 2.67005C27.7429 0.727005 21.9201 0.529885 17.2251 3.04509C13.0945 5.25821 10.2017 9.35293 8.64398 13.7728C7.08622 18.1926 6.74318 22.9452 6.71886 27.63C6.68814 33.326 7.10926 39.0182 7.8107 44.6694C8.2587 48.2841 9.37742 57.5769 14.2145 57.7689C20.1525 58.0032 26.1121 57.7088 31.9989 56.8947C37.0126 56.2022 45.2737 60.0192 49.2801 56.576C51.6725 54.519 50.7995 47.127 51.8261 44.1433C53.0741 40.5184 54.0046 36.7488 54.116 32.9164C54.2632 27.8643 52.9486 22.7763 50.372 18.4281C49.0011 16.1152 47.2897 14.0185 45.4645 12.0448C42.6958 9.05212 39.5893 6.28477 36.0603 4.28029Z" fill="#444DF2"/>
<path d="M39.6684 64H16.165C16.7346 61.9123 17.1967 60.0627 17.2825 59.6749C18.0313 56.2432 18.5049 52.7616 18.6943 49.2685C18.7929 47.4573 18.8159 45.6423 18.7622 43.8298C18.725 42.5741 18.1529 40.5671 18.7225 39.3703C19.813 37.0752 24.8831 39.7696 27.1346 40.0627C31.0015 40.5671 34.9337 40.3303 38.8134 40.0947C38.2233 48.0627 38.5126 56.0832 39.6684 64Z" fill="#E8AE8E"/>
<path d="M19.0372 47.8964C22.9489 52.0974 28.3351 54.761 34.1169 56.2535C39.6209 57.6743 46.1015 57.842 50.3153 54.0263C53.8558 50.8212 54.8209 45.691 55.1844 40.9281C55.6196 35.2218 55.4814 29.4874 55.2318 23.771C55.123 21.2852 54.9911 18.7828 54.3947 16.3687C53.4923 12.7182 51.2382 7.86695 47.6695 6.24647C43.3585 4.28935 38.1937 3.77351 33.5294 4.30087C30.154 4.68231 26.7198 5.08679 23.6171 6.46535C20.8292 7.70439 17.2158 9.28519 15.7271 12.0513C13.8391 15.5585 12.7652 19.6135 12.3083 23.5534C11.6145 29.5284 12.4247 35.6954 14.7479 41.2506C15.8116 43.8017 17.2747 46.0046 19.0372 47.8964Z" fill="#F4C19F"/>
<path d="M15.7543 24.5696C14.9363 23.6032 13.7933 22.9594 12.233 22.9235C9.94051 22.871 7.74531 24.4506 6.91587 26.5894C5.58083 30.0339 7.81314 34.2374 10.8224 36.0141C13.4951 37.591 16.6323 36.672 17.4119 33.5526C17.7575 32.169 17.6218 30.7174 17.4823 29.2979C17.3159 27.5878 16.8039 25.8112 15.7543 24.5696Z" fill="#F4C19F"/>
<path d="M10.7301 33.1354C10.3691 33.1354 10.0619 32.8589 10.0299 32.4928C9.92624 31.2999 10.3934 30.5831 10.803 30.1914C11.5493 29.4784 12.6386 29.2928 13.4283 29.2634C13.3093 28.9933 13.1352 28.768 12.9035 28.5837C11.8514 27.7466 9.95952 28.0052 9.94032 28.0077C9.55632 28.0666 9.19665 27.8016 9.13905 27.4176C9.08017 27.0336 9.34513 26.674 9.72913 26.6164C9.83025 26.601 12.2341 26.2541 13.779 27.4816C14.5189 28.0704 14.9362 28.8999 15.0168 29.9456C15.0334 30.1568 14.9528 30.3655 14.7992 30.5114C14.6443 30.6573 14.4331 30.7252 14.2219 30.6983C13.7534 30.6381 12.3979 30.6125 11.7733 31.2116C11.4994 31.4752 11.388 31.8541 11.4328 32.3712C11.4661 32.7591 11.1794 33.0996 10.7928 33.1341C10.771 33.1341 10.7506 33.1354 10.7301 33.1354Z" fill="#EAAA7F"/>
<path d="M27.3203 21.3325C27.3164 21.3376 27.3139 21.3427 27.31 21.3478C26.8876 21.9661 25.3939 21.9046 24.7487 21.9866C24.2124 22.0544 16.6067 22.7277 16.5708 22.3706C16.8614 25.3338 17.1519 28.2982 17.4425 31.2614C17.8111 35.0272 18.1247 39.072 16.2457 42.3565C16.9331 37.3478 16.0319 32.1331 13.7036 27.6454C12.9625 26.2157 12.0678 24.8256 11.7529 23.2461C11.4828 21.8867 11.6633 20.4787 11.95 19.1232C12.6668 15.7466 14.0505 12.5133 15.9987 9.664C19.5763 4.43392 26.0684 1.76384 32.2316 1.32608C34.9708 1.13152 37.7254 1.15968 40.4595 1.41056C44.3763 1.77024 48.8371 3.04512 51.4227 6.20544C52.9446 8.06656 53.9187 10.304 54.8736 12.5107C55.0911 13.0138 58.1196 22.2797 57.3529 22.112C55.7939 21.7728 54.2361 21.4336 52.6771 21.0944C51.0041 20.7309 49.3299 20.3661 47.6326 20.1421C44.1651 19.6851 40.6591 19.8259 37.1852 20.1306C36.2751 20.2099 30.6009 21.5066 30.1478 20.1997C29.3977 18.0365 28.6463 15.8733 27.8963 13.7101C27.7734 13.3568 27.2575 12.9805 27.1385 13.335C27.1411 14.8211 28.0447 20.2125 27.3203 21.3325Z" fill="#444DF2"/>
<path d="M40.4901 40.1344C40.1023 40.1344 39.7874 39.8208 39.7861 39.433C39.7849 39.0438 40.0985 38.7277 40.4863 38.7264C40.5324 38.7264 45.0303 38.6701 45.2863 36.1766C45.3874 35.1859 45.0905 34.8416 44.5516 34.2182C43.6658 33.1942 42.4537 31.7914 42.5343 27.2499C42.5407 26.8659 42.8543 26.5587 43.2383 26.5587C43.2421 26.5587 43.2473 26.5587 43.2511 26.5587C43.6402 26.5651 43.95 26.8864 43.9423 27.2755C43.8706 31.2794 44.8383 32.3981 45.6165 33.2979C46.2233 33.9994 46.8505 34.7264 46.6866 36.3213C46.3013 40.0691 40.7295 40.1344 40.4927 40.1357C40.4927 40.1344 40.4914 40.1344 40.4901 40.1344Z" fill="#1B1464"/>
<path d="M34.8367 33.3345C35.8631 33.2671 36.6033 31.8131 36.49 30.0869C36.3767 28.3607 35.4528 27.016 34.4264 27.0833C33.4 27.1507 32.6597 28.6047 32.773 30.3309C32.8863 32.0571 33.8103 33.4019 34.8367 33.3345Z" fill="#1B1464"/>
<path d="M49.0584 32.9351C50.0848 32.8677 50.825 31.4137 50.7117 29.6875C50.5984 27.9613 49.6745 26.6165 48.648 26.6839C47.6216 26.7513 46.8814 28.2053 46.9947 29.9315C47.108 31.6577 48.0319 33.0025 49.0584 32.9351Z" fill="#1B1464"/>
<path d="M52.5622 26.3693C52.4176 26.3693 52.2729 26.3258 52.1475 26.2336C49.0742 23.9872 46.3107 24.6861 46.1942 24.7168C45.8192 24.8166 45.4339 24.5952 45.3328 24.2202C45.2317 23.8464 45.4505 23.4611 45.823 23.3574C45.9651 23.319 49.3328 22.432 52.9782 25.0957C53.2918 25.3248 53.3609 25.7651 53.1318 26.08C52.9936 26.2694 52.7798 26.3693 52.5622 26.3693Z" fill="#1B1464"/>
<path d="M27.5739 27.1335C27.4638 27.1335 27.3511 27.1079 27.2462 27.0516C26.9019 26.8698 26.77 26.4448 26.9518 26.1005C27.0222 25.9674 28.7463 22.8583 36.0513 22.8583C36.1153 22.8583 36.1793 22.8583 36.2446 22.8596C36.6337 22.8621 36.946 23.1796 36.9435 23.5687C36.9409 23.9552 36.626 24.2676 36.2395 24.2676C36.2382 24.2676 36.2356 24.2676 36.2343 24.2676C29.7217 24.2202 28.21 26.7316 28.1972 26.7572C28.0718 26.9965 27.8273 27.1335 27.5739 27.1335Z" fill="#1B1464"/>
<path d="M39.3192 46.107C33.7474 46.107 30.0405 41.595 29.8741 41.3902C29.6296 41.0881 29.677 40.6439 29.9804 40.4007C30.2824 40.1563 30.7253 40.2036 30.9698 40.507C31.0274 40.5774 34.9378 45.2993 40.406 44.6337C40.7925 44.5876 41.1432 44.8615 41.1893 45.2481C41.2367 45.6334 40.9615 45.9854 40.5749 46.0314C40.1474 46.0826 39.7276 46.107 39.3192 46.107Z" fill="#1B1464"/>
<path d="M38.5035 57.728C30.2974 57.728 21.9186 51.4522 21.5666 51.1846C21.2568 50.9504 21.1954 50.5088 21.4309 50.199C21.6651 49.8893 22.1067 49.8278 22.4178 50.0621C22.501 50.1248 30.7762 56.3187 38.5048 56.3187C38.8939 56.3187 39.2088 56.6336 39.2088 57.0227C39.2088 57.4118 38.8926 57.728 38.5035 57.728Z" fill="#1B1464"/>
</g>
<defs>
<clipPath id="clip0_104859_16352">
<rect width="64" height="64" rx="32" fill="white"/>
</clipPath>
</defs>
</svg>
