<svg width="64" height="64" viewBox="0 0 64 64" fill="none" xmlns="http://www.w3.org/2000/svg">
<g clip-path="url(#clip0_104859_16378)">
<path d="M64 0.00146484H0V64H64V0.00146484Z" fill="#444DF2"/>
<path d="M37.6514 53.2099C37.2073 56.7746 36.781 60.3969 36.6389 64H6.76758C7.16054 63.3972 7.62646 62.7597 8.1487 62.0647C10.7125 58.6587 12.79 54.8879 14.3093 50.9047C15.0684 48.9143 15.6892 46.8689 16.1589 44.7902C16.4866 43.3477 17.5797 40.2156 17.0895 38.7936C17.3698 39.6076 17.7653 40.3603 18.2505 41.0553C19.7852 43.253 22.2185 44.8542 24.7477 45.8654C28.077 47.1953 31.6687 47.7086 35.1145 48.698C35.8351 48.9053 36.5852 49.1562 37.0882 49.713C37.9049 50.6192 37.8025 51.999 37.6514 53.2099Z" fill="#444DF2"/>
<path d="M37.6514 53.2099C37.2073 56.7746 36.781 60.3969 36.6389 64H6.76758C7.16054 63.3972 7.62646 62.7597 8.1487 62.0647C10.7125 58.6587 12.79 54.8879 14.3093 50.9047C15.0684 48.9143 15.6892 46.8689 16.1589 44.7902C16.4866 43.3477 17.5797 40.2156 17.0895 38.7936C17.3698 39.6076 17.7653 40.3603 18.2505 41.0553C19.7852 43.253 22.2185 44.8542 24.7477 45.8654C28.077 47.1953 31.6687 47.7086 35.1145 48.698C35.8351 48.9053 36.5852 49.1562 37.0882 49.713C37.9049 50.6192 37.8025 51.999 37.6514 53.2099Z" fill="#EAAA7F"/>
<path d="M13.5514 23.3008C13.5105 20.5002 13.8074 17.6638 15.1015 15.1487C17.321 10.8313 22.1902 8.15493 27.1374 7.21799C32.0858 6.28105 37.1738 6.82888 42.1569 7.41766C45.1508 7.77222 49.6154 8.31236 51.2218 11.0553C53.3454 14.6777 53.5514 19.9063 53.9738 23.96C54.3962 28.0137 54.9121 32.0571 55.3166 36.1133C55.6711 39.6704 55.5342 43.4463 54.0954 46.828C52.3764 50.8701 48.6132 54.1571 44.1511 55.2438C37.8036 56.7887 29.1354 54.7779 25.051 49.9613C22.0519 46.4248 18.6906 42.5695 16.7054 38.4198C14.6638 34.1524 13.833 29.4268 13.6001 24.7497C13.5758 24.2685 13.5578 23.7846 13.5514 23.3008Z" fill="#F7C9A4"/>
<path d="M18.1131 40.6111C17.203 40.7135 16.3096 40.6265 15.4917 40.2015C14.4907 39.6818 13.7931 38.7359 13.1518 37.8092C9.55888 32.6241 6.81328 26.3868 6.24752 20.0458C6.0312 17.6151 6.59824 15.0002 8.30576 13.2556C8.74096 12.8114 9.24528 12.4261 9.59088 11.909C10.0466 11.2281 10.1822 10.3897 10.4741 9.62301C11.4354 7.09251 13.9826 5.30567 16.4376 4.16778C27.7336 -1.0673 41.6587 -1.8532 52.3058 4.60169C53.2094 5.14951 54.1029 6.01861 54.7275 6.86979C57.3515 10.4473 54.7928 15.4379 51.5224 17.404C46.8696 20.202 42.0261 21.3591 36.595 20.7319C32.0357 20.2045 27.6606 18.6814 23.3278 17.1672C25.0213 21.3079 24.9573 25.9836 23.3931 30.1486C22.6674 32.0827 22.8466 33.1374 22.8274 35.1533C22.8158 36.327 22.8619 39.0905 21.4808 39.6383C20.4094 40.0633 19.2485 40.4844 18.1131 40.6111Z" fill="#1B1464"/>
<path d="M19.3766 28.2479C22.807 30.6273 23.8643 36.5638 23.9514 40.4524C23.9552 40.6341 23.9578 40.8236 24.0384 40.9874C24.2982 41.5237 20.6362 41.7106 20.3392 41.7132C18.8941 41.7272 17.4477 41.5749 16.0371 41.2575C14.5062 40.9132 14.0403 40.51 13.1302 39.1929C12.3661 38.087 11.7683 36.8608 11.4458 35.5539C10.9222 33.433 11.1693 31.0779 12.3635 29.2501C12.759 28.6447 13.2595 28.0968 13.8765 27.7205C15.5405 26.7081 17.7754 27.1369 19.3766 28.2479Z" fill="#F7C9A4"/>
<path d="M22.0261 40.7096C19.0885 42.7077 15.4277 41.5275 14.3896 40.6482C12.8779 39.3669 11.9128 37.4559 11.4443 35.5552C10.9208 33.4343 11.1678 31.0791 12.3621 29.2513C12.7576 28.6459 13.2581 28.0981 13.875 27.7218C15.539 26.708 17.7739 27.1381 19.3765 28.2478C21.1262 29.4612 22.3243 31.4388 22.5905 33.552" fill="#F7C9A4"/>
<path d="M40.6116 33.5242C41.5534 33.4624 42.2325 32.1279 42.1285 30.5435C42.0245 28.9591 41.1768 27.7248 40.235 27.7866C39.2932 27.8484 38.6141 29.183 38.7181 30.7673C38.8221 32.3517 39.6698 33.586 40.6116 33.5242Z" fill="#1B1464"/>
<path d="M50.6111 30.4546C51.5529 30.3928 52.232 29.0583 52.128 27.4739C52.024 25.8895 51.1763 24.6552 50.2345 24.7171C49.2927 24.7789 48.6136 26.1134 48.7176 27.6978C48.8216 29.2821 49.6694 30.5164 50.6111 30.4546Z" fill="#1B1464"/>
<path d="M46.7481 41.7271C45.317 41.7271 43.886 41.3035 42.9426 40.9515C42.6085 40.826 42.4383 40.4548 42.5637 40.1195C42.6892 39.7854 43.0617 39.6152 43.3957 39.7406C44.4812 40.1464 47.1794 40.9758 48.7781 39.9185C48.9061 39.8341 48.9458 39.788 48.9573 39.7713C48.9612 39.7099 48.9125 39.5473 48.8908 39.4757C48.4837 38.1227 47.9692 36.7775 47.4725 35.477C46.7071 33.4739 45.9161 31.4016 45.4693 29.2077C45.3977 28.8583 45.6242 28.5166 45.9737 28.4449C46.3231 28.3732 46.6649 28.5998 46.7365 28.9492C47.1628 31.0394 47.9346 33.0605 48.6809 35.0163C49.1865 36.3385 49.7087 37.7067 50.1298 39.1032C50.2041 39.3477 50.3269 39.756 50.1848 40.1809C50.0479 40.5918 49.724 40.8427 49.4924 40.9963C48.677 41.5339 47.7132 41.7271 46.7481 41.7271Z" fill="#1B1464"/>
<path d="M33.765 30.425C33.4527 30.425 33.1775 30.1972 33.1276 29.8785C32.6937 27.1099 34.4089 24.1686 37.0329 23.1843C37.367 23.0588 37.7394 23.2278 37.8649 23.5618C37.9903 23.8959 37.8213 24.2684 37.4873 24.3938C35.4162 25.1708 34.062 27.4926 34.405 29.6775C34.4601 30.0295 34.2194 30.361 33.8661 30.4161C33.8316 30.4225 33.7983 30.425 33.765 30.425Z" fill="#1B1464"/>
<path d="M52.4327 22.7261C52.1716 22.7261 51.9258 22.5661 51.8285 22.3075C51.6839 21.9222 51.3485 21.601 50.9108 21.4256C50.473 21.2502 50.0084 21.2515 49.6372 21.4282C49.3159 21.583 48.9293 21.4461 48.7757 21.1248C48.6209 20.8035 48.7578 20.417 49.0791 20.2621C49.7754 19.928 50.6189 19.9152 51.3921 20.225C52.1652 20.5347 52.7655 21.1274 53.0381 21.8506C53.1636 22.1846 52.9959 22.5571 52.6618 22.6838C52.5863 22.712 52.5082 22.7261 52.4327 22.7261Z" fill="#1B1464"/>
<path d="M44.1228 48.4074C42.4882 48.4074 40.8524 47.9453 39.5071 47.0276C39.2127 46.8266 39.1359 46.4247 39.3381 46.129C39.5391 45.8346 39.941 45.7578 40.2367 45.9588C42.4127 47.4436 45.4975 47.5114 47.7375 46.1213C48.0409 45.9332 48.4389 46.0266 48.6271 46.33C48.8153 46.6333 48.7218 47.0314 48.4185 47.2196C47.141 48.0132 45.6319 48.4074 44.1228 48.4074Z" fill="#1B1464"/>
<path d="M36.8321 56.6978C36.7924 56.6978 36.7527 56.694 36.7118 56.6863C31.7646 55.7558 26.8007 52.7337 22.7367 48.1771C22.4986 47.9108 22.523 47.5025 22.7892 47.2644C23.0554 47.0264 23.4638 47.0507 23.7018 47.3169C27.5777 51.6611 32.283 54.5385 36.9511 55.4153C37.3018 55.4818 37.5322 55.8185 37.467 56.1692C37.4081 56.4815 37.1367 56.6978 36.8321 56.6978Z" fill="#1B1464"/>
<path d="M15.8565 37.3024C15.525 37.3024 15.2421 37.049 15.2139 36.7123C15.1192 35.6167 15.5467 34.9588 15.923 34.5991C16.6078 33.945 17.6075 33.7735 18.3333 33.7466C18.2245 33.4996 18.0658 33.2935 17.8546 33.1258C16.8818 32.3489 15.1474 32.5921 15.1307 32.5947C14.7787 32.6459 14.4498 32.4027 14.3973 32.0507C14.3448 31.6987 14.5867 31.3697 14.9387 31.316C15.0322 31.3019 17.2389 30.9832 18.6571 32.1108C19.3368 32.651 19.7195 33.4126 19.7925 34.3725C19.8078 34.5671 19.7336 34.7578 19.5928 34.8922C19.4507 35.0266 19.2562 35.088 19.0629 35.0637C18.6328 35.0087 17.3886 34.9844 16.8152 35.5347C16.563 35.7767 16.4606 36.1248 16.5029 36.5997C16.5336 36.9555 16.2712 37.2691 15.9154 37.2998C15.8949 37.3011 15.8757 37.3024 15.8565 37.3024Z" fill="#EAAA7F"/>
</g>
<defs>
<clipPath id="clip0_104859_16378">
<rect width="64" height="64" rx="32" fill="white"/>
</clipPath>
</defs>
</svg>
